<svg class="main-svg" xmlns="http://www.w3.org/2000/svg" xmlns:xlink="http://www.w3.org/1999/xlink" width="700" height="500" style="" viewBox="0 0 700 500"><rect x="0" y="0" width="700" height="500" style="fill: rgb(255, 255, 255); fill-opacity: 0.2;"/><defs id="defs-0ef3ec"><g class="clips"><clipPath id="clip0ef3ecxyplot" class="plotclip"><rect width="371" height="308"/></clipPath><clipPath class="axesclip" id="clip0ef3ecx"><rect x="114" y="0" width="371" height="500"/></clipPath><clipPath class="axesclip" id="clip0ef3ecy"><rect x="0" y="100" width="700" height="308"/></clipPath><clipPath class="axesclip" id="clip0ef3ecxy"><rect x="114" y="100" width="371" height="308"/></clipPath></g><g class="gradients"/><g class="patterns"/></defs><g class="bglayer"><rect class="bg" x="114" y="100" width="371" height="308" style="fill: rgb(255, 255, 255); fill-opacity: 0.1; stroke-width: 0;"/></g><g class="layer-below"><g class="imagelayer"/><g class="shapelayer"/></g><g class="cartesianlayer"><g class="subplot xy"><g class="layer-subplot"><g class="shapelayer"/><g class="imagelayer"/></g><g class="minor-gridlayer"><g class="x"/><g class="y"/></g><g class="gridlayer"><g class="x"><path class="xgrid crisp" transform="translate(244.18,0)" d="M0,100v308" style="stroke: rgb(235, 240, 248); stroke-opacity: 1; stroke-width: 1px;"/><path class="xgrid crisp" transform="translate(374.35,0)" d="M0,100v308" style="stroke: rgb(235, 240, 248); stroke-opacity: 1; stroke-width: 1px;"/></g><g class="y"><path class="ygrid crisp" transform="translate(0,340.95)" d="M114,0h371" style="stroke: rgb(235, 240, 248); stroke-opacity: 1; stroke-width: 1px;"/><path class="ygrid crisp" transform="translate(0,265.73)" d="M114,0h371" style="stroke: rgb(235, 240, 248); stroke-opacity: 1; stroke-width: 1px;"/><path class="ygrid crisp" transform="translate(0,190.51999999999998)" d="M114,0h371" style="stroke: rgb(235, 240, 248); stroke-opacity: 1; stroke-width: 1px;"/><path class="ygrid crisp" transform="translate(0,115.3)" d="M114,0h371" style="stroke: rgb(235, 240, 248); stroke-opacity: 1; stroke-width: 1px;"/></g></g><g class="zerolinelayer"/><path class="xlines-below"/><path class="ylines-below"/><g class="overlines-below"/><g class="xaxislayer-below"/><g class="yaxislayer-below"/><g class="overaxes-below"/><g class="plot" transform="translate(114,100)" clip-path="url(#clip0ef3ecxyplot)"><g class="scatterlayer mlayer"><g class="trace scatter trace1d05bc" style="stroke-miterlimit: 2; opacity: 1;"><g class="fills"/><g class="errorbars"/><g class="lines"><path class="js-line" d="M0,44.48L1.3,150.89L2.6,141.51L3.91,95.18L5.21,122.26L7.81,177.32L9.11,204.35L10.41,231.72L11.72,80.84L13.02,211.37L14.32,197.88L15.62,226.96L16.92,178.62L20.83,43.03L22.13,135L23.43,171.85L24.73,175.06L26.04,123.91L27.34,156.31L29.94,190.2L31.24,170.55L32.54,152.8L33.85,92.32L35.15,97.24L36.45,156.16L39.05,103.86L40.35,123.86L42.96,33.65L44.26,91.47L45.56,127.32L46.86,136.5L48.16,153.7L49.47,90.42L52.07,169.49L53.37,195.37L54.67,199.78L55.98,141.86L57.28,88.91L58.58,104.96L59.88,211.82L61.18,121L62.48,187.6L63.79,195.02L65.09,182.08L66.39,113.48L68.99,227.31L70.29,115.69L71.6,275.8L72.9,185.94L74.2,119L75.5,165.53L76.8,226.61L78.11,153.1L79.41,169.44L80.71,170.35L82.01,117.49L83.31,162.02L85.92,109.07L87.22,178.72L88.52,185.34L89.82,102.2L91.12,142.17L92.42,90.77L93.73,71.06L95.03,15.4L96.33,130.98L97.63,108.87L98.93,93.38L100.24,161.37L101.54,82.59L102.84,126.57L104.14,52.11L105.44,126.97L106.74,50.1L108.05,114.94L109.35,93.02L110.65,103.55L113.25,161.17L114.55,98.74L115.86,86.46L117.16,133.59L118.46,135.65L119.76,136.1L121.06,111.58L122.36,160.97L123.67,209.06L124.97,163.08L126.27,191.01L127.57,191.46L128.87,230.47L130.18,175.46L131.48,134.24L132.78,237.34L135.38,119.8L136.68,150.39L137.99,157.31L139.29,154.5L140.59,120.8L141.89,132.39L144.49,103.2L145.8,162.52L147.1,118.75L148.4,123.11L149.7,197.63L151,131.33L152.31,117.39L153.61,171.35L154.91,142.72L156.21,182.53L157.51,145.43L158.81,179.42L160.12,140.56L161.42,233.58L162.72,209.36L164.02,163.98L165.32,200.48L166.62,155.96L167.93,208.31L169.23,226.06L170.53,147.43L171.83,291.3L173.13,164.93L174.44,138.96L175.74,123.51L177.04,180.58L178.34,180.63L179.64,124.51L182.25,201.09L183.55,135L186.15,190.56L187.45,162.57L188.75,208.81L190.06,220.89L191.36,151.89L192.66,167.99L195.26,44.43L196.56,118.9L197.87,141.16L199.17,123.46L200.47,151.34L201.77,150.44L203.07,130.33L204.38,134.09L205.68,161.07L206.98,115.59L208.28,141.86L209.58,76.78L212.19,136.95L213.49,89.41L214.79,188.25L216.09,161.92L217.39,131.64L218.69,161.32L220,149.29L221.3,201.49L223.9,142.97L225.2,153.7L226.51,130.28L227.81,86.71L229.11,172.65L230.41,143.57L231.71,158.96L233.01,184.24L234.32,110.42L235.62,146.98L236.92,121.86L238.22,129.33L239.52,114.44L240.82,68.25L242.13,37.36L243.43,46.74L244.73,66.85L246.03,72.26L248.64,231.52L249.94,167.89L251.24,171.05L252.54,194.12L253.84,192.11L255.14,219.24L256.45,251.43L257.75,218.89L259.05,198.48L260.35,222.8L261.65,242.96L262.95,161.97L264.26,188L265.56,136.05L266.86,217.88L268.16,147.53L269.46,167.09L270.76,207.15L273.37,184.44L274.67,159.57L275.97,167.69L277.27,223.45L278.58,177.07L279.88,232.18L281.18,198.98L282.48,218.24L283.78,193.56L285.08,126.82L286.39,170.7L287.69,159.11L290.29,178.42L291.59,194.27L292.89,203.34L294.2,191.36L295.5,194.02L296.8,219.24L298.1,227.41L299.4,194.07L300.71,244.76L302.01,182.78L303.31,268.38L304.61,200.79L305.91,130.28L307.21,229.37L308.52,206.6L309.82,126.47L311.12,209.96L312.42,234.28L313.72,174.81L315.02,284.78L316.33,215.33L317.63,250.38L320.23,182.28L321.53,182.23L322.84,262.76L324.14,259.5L325.44,263.92L326.74,199.28L329.34,247.87L330.65,209.51L331.95,182.53L333.25,220.19L334.55,204.75L335.85,162.62L337.15,255.34L338.46,169.75L339.76,285.18L341.06,242.2L342.36,150.14L343.66,214.68L344.96,226.16L346.27,183.03L347.57,160.07L348.87,193.56L351.47,160.47L352.78,232.78L354.08,167.74L355.38,273.29L356.68,289.24L357.98,221.95L359.28,172.35L360.59,205.5L361.89,217.43L363.19,292.6L364.49,280.26L365.79,284.88L368.4,242.56L369.7,268.33L371,280.16" style="vector-effect: none; fill: none; stroke: rgb(99, 110, 250); stroke-opacity: 1; stroke-width: 2px; opacity: 1;"/></g><g class="points"/><g class="text"/></g></g></g><g class="overplot"/><path class="xlines-above crisp" d="M0,0" style="fill: none;"/><path class="ylines-above crisp" d="M0,0" style="fill: none;"/><g class="overlines-above"/><g class="xaxislayer-above"><g class="xtick"><text text-anchor="middle" x="0" y="439" transform="translate(114,0)" style="font-family: 'Open Sans', verdana, arial, sans-serif; font-size: 30px; fill: rgb(42, 63, 95); fill-opacity: 1; white-space: pre; opacity: 1;">0</text></g><g class="xtick"><text text-anchor="middle" x="0" y="439" style="font-family: 'Open Sans', verdana, arial, sans-serif; font-size: 30px; fill: rgb(42, 63, 95); fill-opacity: 1; white-space: pre; opacity: 1;" transform="translate(244.18,0)">5</text></g><g class="xtick"><text text-anchor="middle" x="0" y="439" style="font-family: 'Open Sans', verdana, arial, sans-serif; font-size: 30px; fill: rgb(42, 63, 95); fill-opacity: 1; white-space: pre; opacity: 1;" transform="translate(374.35,0)">10</text></g></g><g class="yaxislayer-above"><g class="ytick"><text text-anchor="end" x="113" y="10.5" transform="translate(0,340.95)" style="font-family: 'Open Sans', verdana, arial, sans-serif; font-size: 30px; fill: rgb(42, 63, 95); fill-opacity: 1; white-space: pre; opacity: 1;">14</text></g><g class="ytick"><text text-anchor="end" x="113" y="10.5" style="font-family: 'Open Sans', verdana, arial, sans-serif; font-size: 30px; fill: rgb(42, 63, 95); fill-opacity: 1; white-space: pre; opacity: 1;" transform="translate(0,265.73)">14.5</text></g><g class="ytick"><text text-anchor="end" x="113" y="10.5" style="font-family: 'Open Sans', verdana, arial, sans-serif; font-size: 30px; fill: rgb(42, 63, 95); fill-opacity: 1; white-space: pre; opacity: 1;" transform="translate(0,190.51999999999998)">15</text></g><g class="ytick"><text text-anchor="end" x="113" y="10.5" style="font-family: 'Open Sans', verdana, arial, sans-serif; font-size: 30px; fill: rgb(42, 63, 95); fill-opacity: 1; white-space: pre; opacity: 1;" transform="translate(0,115.3)">15.5</text></g></g><g class="overaxes-above"/></g></g><g class="polarlayer"/><g class="smithlayer"/><g class="ternarylayer"/><g class="geolayer"/><g class="funnelarealayer"/><g class="pielayer"/><g class="iciclelayer"/><g class="treemaplayer"/><g class="sunburstlayer"/><g class="glimages"/><defs id="topdefs-0ef3ec"><g class="clips"/><clipPath id="legend0ef3ec"><rect width="203" height="52" x="0" y="0"/></clipPath></defs><g class="layer-above"><g class="imagelayer"/><g class="shapelayer"/></g><g class="infolayer"><g class="legend" pointer-events="all" transform="translate(485,100)"><rect class="bg" shape-rendering="crispEdges" style="stroke: rgb(68, 68, 68); stroke-opacity: 1; fill: rgb(255, 255, 255); fill-opacity: 0.2; stroke-width: 0px;" width="203" height="52" x="0" y="0"/><g class="scrollbox" transform="" clip-path="url(#legend0ef3ec)"><g class="groups"><g class="traces" transform="translate(0,26)" style="opacity: 1;"><text class="legendtext" text-anchor="start" x="40" y="11.7" style="font-family: 'Open Sans', verdana, arial, sans-serif; font-size: 30px; fill: rgb(42, 63, 95); fill-opacity: 1; white-space: pre;">Mean Value</text><g class="layers" style="opacity: 1;"><g class="legendfill"/><g class="legendlines"><path class="js-line" d="M5,0h30" style="fill: none; stroke: rgb(99, 110, 250); stroke-opacity: 1; stroke-width: 2px;"/></g><g class="legendsymbols"><g class="legendpoints"/></g></g><rect class="legendtoggle" x="0" y="-21" width="197.890625" height="42" style="fill: rgb(0, 0, 0); fill-opacity: 0;"/></g></g></g><rect class="scrollbar" rx="20" ry="3" width="0" height="0" style="fill: rgb(128, 139, 164); fill-opacity: 1;" x="0" y="0"/></g><g class="g-gtitle"><text class="gtitle" x="350" y="0" text-anchor="middle" dy="0.7em" style="font-family: 'Open Sans', verdana, arial, sans-serif; font-size: 34px; fill: rgb(42, 63, 95); opacity: 1; font-weight: normal; white-space: pre;">Solvent Accessible Surface</text></g><g class="g-xtitle"><text class="xtitle" x="299.5" y="487.5" text-anchor="middle" style="font-family: Arial; font-size: 40px; fill: rgb(0, 0, 0); opacity: 1; font-weight: normal; white-space: pre;">Time (ns)</text></g><g class="g-ytitle" transform="translate(29.703125,0)"><text class="ytitle" transform="rotate(-90,12.109375,254)" x="12.109375" y="254" text-anchor="middle" style="font-family: Arial; font-size: 40px; fill: rgb(0, 0, 0); opacity: 1; font-weight: normal; white-space: pre;">SASA Area (nm​<tspan style="font-size:70%" dy="-0.6em">2</tspan><tspan dy="0.42em">​</tspan>)</text></g></g></svg>