<svg class="main-svg" xmlns="http://www.w3.org/2000/svg" xmlns:xlink="http://www.w3.org/1999/xlink" width="700" height="500" style="" viewBox="0 0 700 500"><rect x="0" y="0" width="700" height="500" style="fill: rgb(255, 255, 255); fill-opacity: 0.2;"/><defs id="defs-c85831"><g class="clips"><clipPath id="clipc85831xyplot" class="plotclip"><rect width="428" height="308"/></clipPath><clipPath class="axesclip" id="clipc85831x"><rect x="89" y="0" width="428" height="500"/></clipPath><clipPath class="axesclip" id="clipc85831y"><rect x="0" y="100" width="700" height="308"/></clipPath><clipPath class="axesclip" id="clipc85831xy"><rect x="89" y="100" width="428" height="308"/></clipPath></g><g class="gradients"/><g class="patterns"/></defs><g class="bglayer"><rect class="bg" x="89" y="100" width="428" height="308" style="fill: rgb(255, 255, 255); fill-opacity: 0.1; stroke-width: 0;"/></g><g class="layer-below"><g class="imagelayer"/><g class="shapelayer"/></g><g class="cartesianlayer"><g class="subplot xy"><g class="layer-subplot"><g class="shapelayer"/><g class="imagelayer"/></g><g class="minor-gridlayer"><g class="x"/><g class="y"/></g><g class="gridlayer"><g class="x"><path class="xgrid crisp" transform="translate(239.18,0)" d="M0,100v308" style="stroke: rgb(235, 240, 248); stroke-opacity: 1; stroke-width: 1px;"/><path class="xgrid crisp" transform="translate(389.35,0)" d="M0,100v308" style="stroke: rgb(235, 240, 248); stroke-opacity: 1; stroke-width: 1px;"/></g><g class="y"><path class="ygrid crisp" transform="translate(0,395.05)" d="M89,0h428" style="stroke: rgb(235, 240, 248); stroke-opacity: 1; stroke-width: 1px;"/><path class="ygrid crisp" transform="translate(0,346.08000000000004)" d="M89,0h428" style="stroke: rgb(235, 240, 248); stroke-opacity: 1; stroke-width: 1px;"/><path class="ygrid crisp" transform="translate(0,297.12)" d="M89,0h428" style="stroke: rgb(235, 240, 248); stroke-opacity: 1; stroke-width: 1px;"/><path class="ygrid crisp" transform="translate(0,248.15)" d="M89,0h428" style="stroke: rgb(235, 240, 248); stroke-opacity: 1; stroke-width: 1px;"/><path class="ygrid crisp" transform="translate(0,199.18)" d="M89,0h428" style="stroke: rgb(235, 240, 248); stroke-opacity: 1; stroke-width: 1px;"/><path class="ygrid crisp" transform="translate(0,150.22)" d="M89,0h428" style="stroke: rgb(235, 240, 248); stroke-opacity: 1; stroke-width: 1px;"/><path class="ygrid crisp" transform="translate(0,101.25)" d="M89,0h428" style="stroke: rgb(235, 240, 248); stroke-opacity: 1; stroke-width: 1px;"/></g></g><g class="zerolinelayer"/><path class="xlines-below"/><path class="ylines-below"/><g class="overlines-below"/><g class="xaxislayer-below"/><g class="yaxislayer-below"/><g class="overaxes-below"/><g class="plot" transform="translate(89,100)" clip-path="url(#clipc85831xyplot)"><g class="scatterlayer mlayer"><g class="trace scatter traced12174" style="stroke-miterlimit: 2; opacity: 1;"><g class="fills"/><g class="errorbars"/><g class="lines"><path class="js-line" d="M0,257.25L1.5,274.9L3,263.39L4.51,277.1L6.01,277.42L7.51,291.35L9.01,273.7L10.51,275.95L12.01,280.73L13.52,263.37L15.02,280.85L16.52,279.57L18.02,275.88L21.02,273.14L22.53,267.58L24.03,268.95L25.53,273.92L27.03,280.16L28.53,276.37L30.04,272.18L31.54,271.45L36.04,279.62L37.54,276.47L39.05,270.37L40.55,282.12L42.05,278.28L43.55,279.99L45.05,281.46L46.55,278.13L48.06,278.62L49.56,275.02L51.06,271.89L52.56,281.68L54.06,274.12L55.56,274.58L58.57,267.6L60.07,288.27L61.57,282.32L63.07,286.23L64.58,271.91L66.08,269.37L67.58,278.42L69.08,280.11L70.58,279.65L72.08,272.94L73.59,277.2L75.09,267.72L76.59,270.44L78.09,275.63L79.59,278.45L81.09,276.91L82.6,292.26L84.1,273.18L85.6,263.05L87.1,269.32L88.6,282.49L90.11,275.41L91.61,275.76L93.11,272.18L94.61,274.12L96.11,285.16L99.12,262.51L100.62,274.75L103.62,283.61L105.12,273.77L106.62,270.86L108.13,275.49L109.63,265.03L111.13,282.17L114.13,268.73L115.64,273.6L117.14,278.69L118.64,277.71L120.14,264.35L121.64,280.04L123.14,269.78L124.65,278.6L126.15,270.27L127.65,277.27L129.15,281.22L130.65,274.73L132.15,277.22L133.66,263.66L135.16,277.69L136.66,272.45L138.16,278.89L139.66,279.33L141.16,276.37L142.67,286.55L145.67,271.96L147.17,274.43L148.67,276.17L150.18,275.36L151.68,272.72L153.18,285.94L154.68,278.99L156.18,266.67L159.19,279.23L160.69,265.84L162.19,271.23L163.69,271.5L165.19,279.45L166.69,268.34L169.7,284.77L171.2,274.73L172.7,284.96L174.2,274.78L175.71,278.79L177.21,280.38L181.71,275.29L183.21,266.72L184.72,272.43L186.22,274.78L187.72,282.49L189.22,267.53L190.72,272.67L192.22,270.37L193.73,288.83L195.23,279.06L198.23,273.48L199.73,279.45L201.24,268.48L202.74,273.85L204.24,282.66L205.74,280.9L207.24,274.56L208.74,278.82L210.25,282.64L211.75,283.81L213.25,282.02L214.75,274.85L216.25,270.96L217.75,287.7L219.26,283.57L220.76,287.14L222.26,273.72L223.76,270.2L225.26,271.99L226.76,276.66L228.27,268.7L229.77,270.49L231.27,268.58L232.77,275.76L234.27,278.08L235.78,276.78L237.28,261.46L238.78,285.6L240.28,269.76L241.78,281.63L243.28,266.26L244.79,282.81L246.29,270.49L247.79,273.45L249.29,271.84L250.79,266.01L252.29,271.74L253.8,269.37L255.3,272.92L256.8,267.63L258.3,268.19L259.8,261.97L261.31,271.35L262.81,269.1L264.31,271.3L265.81,268.24L267.31,273.14L268.81,272.6L270.32,279.67L271.82,275.34L273.32,272.16L274.82,271.91L277.82,272.35L279.33,284.96L280.83,272.35L282.33,279.94L283.83,268.43L285.33,274.9L288.34,279.5L289.84,273.97L291.34,274.87L292.84,272.72L294.34,269.73L295.85,278.79L297.35,268.63L298.85,270.52L300.35,274.87L301.85,273.41L303.35,260.18L304.86,282.1L306.36,270.3L307.86,282.51L312.36,270.1L313.87,285.03L315.37,269.66L316.87,273.6L318.37,273.92L319.87,277.13L321.38,281.02L322.88,272.45L324.38,281.12L325.88,272.16L327.38,273.55L328.88,268.58L330.39,271.2L331.89,282.86L334.89,272.11L336.39,277.54L337.89,273.92L339.4,274.7L340.9,268.24L342.4,265.59L343.9,264.22L345.4,278.52L348.41,271.05L349.91,272.77L351.41,274.75L352.91,266.26L354.41,278.13L355.92,279.53L357.42,283.17L358.92,273.87L360.42,266.28L361.92,277.47L363.42,278.57L364.93,280.8L366.43,262.46L367.93,270.22L369.43,282.49L370.93,270.47L372.44,268.29L373.94,278.11L375.44,267.21L376.94,274.43L378.44,264.76L379.94,271.5L381.45,268.53L382.95,268.04L385.95,292.6L387.45,272.84L388.95,269.98L390.46,276.17L391.96,278.01L393.46,275.27L394.96,261.6L396.46,278.4L399.47,272.3L400.97,280.26L402.47,270.49L403.97,268.48L405.47,265.23L406.98,273.23L408.48,261.6L409.98,271.4L411.48,276.56L412.98,268.53L414.48,266.99L415.99,275.93L417.49,268.29L418.99,266.35L420.49,277.57L421.99,282.17L423.49,272.08L425,254.19L426.5,267.24L428,272.47" style="vector-effect: none; fill: none; stroke: rgb(99, 110, 250); stroke-opacity: 1; stroke-width: 2px; opacity: 1;"/></g><g class="points"/><g class="text"/></g><g class="trace scatter trace779d3f" style="stroke-miterlimit: 2; opacity: 1;"><g class="fills"/><g class="errorbars"/><g class="lines"><path class="js-line" d="M0,49.09L1.5,66.55L3,57.02L4.51,31.09L6.01,41.23L7.51,55.94L9.01,61.65L10.51,88.95L12.01,83.68L13.52,57.22L15.02,78.84L16.52,72.86L18.02,103.05L19.52,57.39L21.02,80.84L22.53,67.43L24.03,63.46L25.53,84.05L27.03,78.25L30.04,80.97L31.54,92.2L33.04,86.96L34.54,87.72L36.04,57.46L37.54,62.02L39.05,55.21L40.55,55.97L42.05,78.91L43.55,69.19L45.05,79.23L46.55,67.65L48.06,59.86L49.56,43.56L51.06,54.74L52.56,56.36L54.06,73.25L55.56,81.02L57.07,61.92L58.57,86.6L60.07,90.71L61.57,105.08L63.07,80.72L64.58,94.95L66.08,68.06L67.58,55.06L69.08,87.01L70.58,62.33L72.08,71.47L73.59,93.13L76.59,56.04L78.09,81.65L79.59,96L81.09,64.29L82.6,105.69L84.1,93.45L85.6,67.75L87.1,95.73L88.6,93.5L90.11,64.37L91.61,63.56L93.11,61.72L94.61,78.98L96.11,55.14L97.61,61.62L99.12,55.38L100.62,89.66L102.12,73.5L103.62,39.54L105.12,60.28L108.13,35.11L109.63,32.22L111.13,51.02L112.63,41.13L114.13,33.13L115.64,55.72L117.14,44.24L118.64,52.15L120.14,48.4L121.64,55.48L123.14,24.68L124.65,42.53L126.15,41.11L127.65,57.95L130.65,67.75L132.15,50.88L133.66,50.97L135.16,44.19L136.66,62.48L138.16,64.07L139.66,54.21L141.16,76.39L144.17,69.24L145.67,82.34L147.17,83.27L148.67,103.59L150.18,71.54L151.68,60.06L153.18,77.59L154.68,76.09L156.18,68.58L157.68,67.04L159.19,69.36L160.69,75.07L162.19,80.43L163.69,65.98L165.19,53.23L166.69,55.45L168.2,61.21L169.7,75.8L171.2,68.21L172.7,84.64L174.2,63.83L175.71,64.56L177.21,58.44L178.71,66.45L180.21,87.9L181.71,64.22L183.21,69.8L184.72,62.51L186.22,76.53L187.72,79.77L189.22,78.64L190.72,73.4L192.22,77.2L193.73,56.19L195.23,83.34L196.73,62.14L198.23,93.45L199.73,59.49L201.24,54.11L202.74,55.16L204.24,70.73L205.74,71.08L207.24,49.8L208.74,63.09L210.25,74.26L211.75,60.96L213.25,60.91L214.75,85.2L217.75,78L219.26,82.21L220.76,52.69L222.26,55.8L223.76,51.49L225.26,49.51L226.76,55.01L228.27,71.71L229.77,47.38L231.27,59.4L232.77,62.04L234.27,54.72L235.78,47.5L237.28,59.76L238.78,35.75L240.28,62.33L241.78,28.62L243.28,46.93L244.79,38.27L246.29,46.64L249.29,80.31L250.79,67.43L252.29,72.27L253.8,73.65L255.3,80.89L256.8,79.84L258.3,65.08L259.8,66.42L261.31,68.41L262.81,36.87L264.31,67.45L265.81,70.32L267.31,55.21L268.81,79.35L270.32,47.74L271.82,47.38L273.32,59.52L274.82,44.68L276.32,51.17L277.82,36.87L279.33,40.64L280.83,55.48L282.33,36.5L283.83,49.75L286.84,90.93L288.34,77L289.84,85.81L291.34,85.96L292.84,97.64L294.34,92.16L297.35,105.99L298.85,103.1L300.35,104.03L301.85,120.65L303.35,96.81L304.86,94.95L306.36,83L307.86,106.4L309.36,92.2L310.86,104.25L312.36,108.09L313.87,85.03L316.87,98.89L318.37,83.63L319.87,102.93L321.38,79.45L322.88,119.26L324.38,110.1L325.88,117.54L327.38,101.09L328.88,81.68L330.39,107.51L333.39,81.24L334.89,90L336.39,88.56L337.89,100.87L339.4,103.17L340.9,109.73L342.4,105.6L343.9,117.32L345.4,86.38L346.91,119.53L348.41,86.87L349.91,103.71L351.41,95.63L352.91,93.21L354.41,109.59L355.92,92.11L357.42,61.87L358.92,86.08L360.42,90.83L361.92,67.16L363.42,104.18L364.93,81.14L366.43,105.57L367.93,83.24L369.43,52.91L370.93,83.27L372.44,116.05L373.94,90.93L375.44,102.66L376.94,72.27L378.44,100.36L379.94,112.04L381.45,105.84L382.95,79.99L384.45,83.66L385.95,68.26L388.95,110.74L390.46,81.6L391.96,104.91L393.46,86.01L394.96,67.23L396.46,71.47L399.47,81.77L400.97,61.82L402.47,72.13L403.97,69.21L405.47,81.41L406.98,104.84L408.48,85.91L409.98,88.7L411.48,109.51L412.98,98.15L415.99,87.8L417.49,107.19L418.99,109.98L420.49,109.66L423.49,123.59L425,120.73L426.5,116.1L428,118.35" style="vector-effect: none; fill: none; stroke: rgb(239, 85, 59); stroke-opacity: 1; stroke-width: 2px; opacity: 1;"/></g><g class="points"/><g class="text"/></g><g class="trace scatter trace202ed1" style="stroke-miterlimit: 2; opacity: 1;"><g class="fills"/><g class="errorbars"/><g class="lines"><path class="js-line" d="M0,42.18L3,75.48L4.51,65.08L6.01,67.84L7.51,57.34L9.01,78.03L10.51,61.67L12.01,75.53L13.52,45.69L15.02,70.32L16.52,70.98L18.02,58.69L19.52,81.68L21.02,37.8L22.53,23.21L24.03,15.4L25.53,34.74L27.03,52.3L28.53,56.53L30.04,34.15L31.54,39.47L33.04,52.91L34.54,55.9L36.04,72.98L37.54,62.92L40.55,36.19L42.05,45.86L43.55,37.53L45.05,16.82L46.55,41.5L48.06,31.34L49.56,24.65L51.06,44.83L52.56,50.93L54.06,46.08L55.56,46.25L57.07,38.93L58.57,39.64L60.07,30.58L61.57,34.79L63.07,57.39L64.58,29.21L66.08,32.78L67.58,44.56L69.08,63.09L70.58,43.9L72.08,73.99L73.59,51.68L75.09,69.9L76.59,55.72L78.09,55.94L79.59,63.34L81.09,42.09L82.6,63.51L84.1,50.95L85.6,54.11L87.1,42.58L88.6,61.45L90.11,61.77L93.11,76.07L94.61,31.07L96.11,65.62L97.61,61.92L99.12,62.16L100.62,49.65L102.12,64.1L103.62,53.54L105.12,62.16L106.62,54.26L108.13,50.9L109.63,37.07L111.13,57.56L112.63,61.99L115.64,76.27L117.14,44.19L118.64,58.74L120.14,39.49L121.64,53.28L123.14,56.8L124.65,61.8L126.15,60.84L127.65,42.14L129.15,53.42L130.65,63.02L132.15,46.91L133.66,54.38L135.16,70.14L138.16,50.29L139.66,47.74L141.16,52.64L142.67,70.73L144.17,60.25L145.67,65.76L148.67,59.57L150.18,65.57L151.68,59.57L153.18,79.15L154.68,47.84L156.18,50.04L157.68,59.86L159.19,55.01L160.69,61.33L162.19,34.13L163.69,53.96L165.19,52.76L166.69,53.4L168.2,66.47L169.7,24.21L171.2,43.97L172.7,53.69L174.2,52.32L175.71,40.76L177.21,71.64L178.71,51.56L180.21,51.46L181.71,58.29L183.21,77.88L184.72,60.5L186.22,89.54L187.72,66.77L189.22,60.69L190.72,78.62L192.22,55.38L193.73,83.49L195.23,74.77L196.73,61.16L198.23,102.1L199.73,68.38L201.24,72.05L202.74,58.1L204.24,61.58L205.74,63.02L207.24,63.24L208.74,60.79L210.25,68.09L211.75,47.94L213.25,60.84L214.75,59.79L216.25,54.77L219.26,68.87L220.76,61.13L222.26,79.3L223.76,61.82L225.26,27.01L226.76,53.18L228.27,55.31L229.77,69.21L231.27,72.72L232.77,62.46L234.27,57.63L235.78,67.99L237.28,84.22L238.78,61.89L240.28,63.97L241.78,54.03L244.79,72.59L246.29,53.32L247.79,77.95L249.29,53.72L252.29,61.55L253.8,56.68L255.3,71.37L256.8,65.27L258.3,63.34L259.8,73.45L261.31,50.66L262.81,63.17L264.31,72.35L265.81,58.34L267.31,76.07L268.81,64.81L270.32,53.3L271.82,75.85L273.32,54.62L274.82,73.35L277.82,50.9L279.33,19.44L280.83,21.79L282.33,42.99L283.83,43.9L285.33,62.04L286.84,71.34L288.34,52.27L289.84,50.53L291.34,60.74L292.84,50.24L294.34,71.96L295.85,71.96L297.35,59.05L298.85,50.09L300.35,56.68L301.85,51.37L303.35,48.89L304.86,41.55L306.36,39.93L307.86,44.27L309.36,28.91L310.86,29.26L312.36,49.75L313.87,50.17L315.37,56.04L316.87,32.22L318.37,51.12L319.87,55.85L321.38,52.79L322.88,48.45L324.38,32.73L325.88,43.65L327.38,46.67L330.39,31.44L331.89,29.28L333.39,51.12L334.89,51.81L336.39,55.55L337.89,51.29L339.4,42.36L340.9,43.56L342.4,62.65L343.9,56.29L345.4,56.65L346.91,51.19L348.41,58.12L349.91,81.36L352.91,30.95L354.41,51.07L355.92,56.04L357.42,43.51L360.42,84.08L361.92,67.52L363.42,83.1L364.93,70L366.43,81.02L367.93,78.35L369.43,80.4L370.93,62.04L372.44,70.76L373.94,84.47L375.44,85.79L376.94,77.39L379.94,64.29L381.45,54.72L382.95,67.89L384.45,69.92L385.95,65.91L387.45,46.86L388.95,70.76L390.46,51.9L391.96,83.12L393.46,83.78L394.96,71.27L396.46,81.75L397.96,86.11L399.47,62.09L400.97,62.87L402.47,78.69L403.97,74.06L405.47,58.52L406.98,62.38L408.48,61.18L409.98,100.14L411.48,81.95L414.48,51.66L415.99,63.41L417.49,57.49L418.99,93.33L421.99,66.77L423.49,59.94L425,70.32L426.5,74.48L428,72.76" style="vector-effect: none; fill: none; stroke: rgb(0, 204, 150); stroke-opacity: 1; stroke-width: 2px; opacity: 1;"/></g><g class="points"/><g class="text"/></g></g></g><g class="overplot"/><path class="xlines-above crisp" d="M0,0" style="fill: none;"/><path class="ylines-above crisp" d="M0,0" style="fill: none;"/><g class="overlines-above"/><g class="xaxislayer-above"><g class="xtick"><text text-anchor="middle" x="0" y="439" transform="translate(89,0)" style="font-family: 'Open Sans', verdana, arial, sans-serif; font-size: 30px; fill: rgb(42, 63, 95); fill-opacity: 1; white-space: pre; opacity: 1;">0</text></g><g class="xtick"><text text-anchor="middle" x="0" y="439" style="font-family: 'Open Sans', verdana, arial, sans-serif; font-size: 30px; fill: rgb(42, 63, 95); fill-opacity: 1; white-space: pre; opacity: 1;" transform="translate(239.18,0)">5</text></g><g class="xtick"><text text-anchor="middle" x="0" y="439" style="font-family: 'Open Sans', verdana, arial, sans-serif; font-size: 30px; fill: rgb(42, 63, 95); fill-opacity: 1; white-space: pre; opacity: 1;" transform="translate(389.35,0)">10</text></g></g><g class="yaxislayer-above"><g class="ytick"><text text-anchor="end" x="88" y="10.5" transform="translate(0,395.05)" style="font-family: 'Open Sans', verdana, arial, sans-serif; font-size: 30px; fill: rgb(42, 63, 95); fill-opacity: 1; white-space: pre; opacity: 1;">8</text></g><g class="ytick"><text text-anchor="end" x="88" y="10.5" style="font-family: 'Open Sans', verdana, arial, sans-serif; font-size: 30px; fill: rgb(42, 63, 95); fill-opacity: 1; white-space: pre; opacity: 1;" transform="translate(0,346.08000000000004)">10</text></g><g class="ytick"><text text-anchor="end" x="88" y="10.5" style="font-family: 'Open Sans', verdana, arial, sans-serif; font-size: 30px; fill: rgb(42, 63, 95); fill-opacity: 1; white-space: pre; opacity: 1;" transform="translate(0,297.12)">12</text></g><g class="ytick"><text text-anchor="end" x="88" y="10.5" style="font-family: 'Open Sans', verdana, arial, sans-serif; font-size: 30px; fill: rgb(42, 63, 95); fill-opacity: 1; white-space: pre; opacity: 1;" transform="translate(0,248.15)">14</text></g><g class="ytick"><text text-anchor="end" x="88" y="10.5" style="font-family: 'Open Sans', verdana, arial, sans-serif; font-size: 30px; fill: rgb(42, 63, 95); fill-opacity: 1; white-space: pre; opacity: 1;" transform="translate(0,199.18)">16</text></g><g class="ytick"><text text-anchor="end" x="88" y="10.5" style="font-family: 'Open Sans', verdana, arial, sans-serif; font-size: 30px; fill: rgb(42, 63, 95); fill-opacity: 1; white-space: pre; opacity: 1;" transform="translate(0,150.22)">18</text></g><g class="ytick"><text text-anchor="end" x="88" y="10.5" style="font-family: 'Open Sans', verdana, arial, sans-serif; font-size: 30px; fill: rgb(42, 63, 95); fill-opacity: 1; white-space: pre; opacity: 1;" transform="translate(0,101.25)">20</text></g></g><g class="overaxes-above"/></g></g><g class="polarlayer"/><g class="smithlayer"/><g class="ternarylayer"/><g class="geolayer"/><g class="funnelarealayer"/><g class="pielayer"/><g class="iciclelayer"/><g class="treemaplayer"/><g class="sunburstlayer"/><g class="glimages"/><defs id="topdefs-c85831"><g class="clips"/><clipPath id="legendc85831"><rect width="171" height="136" x="0" y="0"/></clipPath></defs><g class="layer-above"><g class="imagelayer"/><g class="shapelayer"/></g><g class="infolayer"><g class="legend" pointer-events="all" transform="translate(517,100)"><rect class="bg" shape-rendering="crispEdges" style="stroke: rgb(68, 68, 68); stroke-opacity: 1; fill: rgb(255, 255, 255); fill-opacity: 0.2; stroke-width: 0px;" width="171" height="136" x="0" y="0"/><g class="scrollbox" transform="" clip-path="url(#legendc85831)"><g class="groups"><g class="traces" transform="translate(0,26)" style="opacity: 1;"><text class="legendtext" text-anchor="start" x="40" y="11.7" style="font-family: 'Open Sans', verdana, arial, sans-serif; font-size: 30px; fill: rgb(42, 63, 95); fill-opacity: 1; white-space: pre;">Replica 1</text><g class="layers" style="opacity: 1;"><g class="legendfill"/><g class="legendlines"><path class="js-line" d="M5,0h30" style="fill: none; stroke: rgb(99, 110, 250); stroke-opacity: 1; stroke-width: 2px;"/></g><g class="legendsymbols"><g class="legendpoints"/></g></g><rect class="legendtoggle" x="0" y="-21" width="165.078125" height="42" style="fill: rgb(0, 0, 0); fill-opacity: 0;"/></g><g class="traces" transform="translate(0,68)" style="opacity: 1;"><text class="legendtext" text-anchor="start" x="40" y="11.7" style="font-family: 'Open Sans', verdana, arial, sans-serif; font-size: 30px; fill: rgb(42, 63, 95); fill-opacity: 1; white-space: pre;">Replica 2</text><g class="layers" style="opacity: 1;"><g class="legendfill"/><g class="legendlines"><path class="js-line" d="M5,0h30" style="fill: none; stroke: rgb(239, 85, 59); stroke-opacity: 1; stroke-width: 2px;"/></g><g class="legendsymbols"><g class="legendpoints"/></g></g><rect class="legendtoggle" x="0" y="-21" width="165.078125" height="42" style="fill: rgb(0, 0, 0); fill-opacity: 0;"/></g><g class="traces" transform="translate(0,110)" style="opacity: 1;"><text class="legendtext" text-anchor="start" x="40" y="11.7" style="font-family: 'Open Sans', verdana, arial, sans-serif; font-size: 30px; fill: rgb(42, 63, 95); fill-opacity: 1; white-space: pre;">Replica 3</text><g class="layers" style="opacity: 1;"><g class="legendfill"/><g class="legendlines"><path class="js-line" d="M5,0h30" style="fill: none; stroke: rgb(0, 204, 150); stroke-opacity: 1; stroke-width: 2px;"/></g><g class="legendsymbols"><g class="legendpoints"/></g></g><rect class="legendtoggle" x="0" y="-21" width="165.078125" height="42" style="fill: rgb(0, 0, 0); fill-opacity: 0;"/></g></g></g><rect class="scrollbar" rx="20" ry="3" width="0" height="0" style="fill: rgb(128, 139, 164); fill-opacity: 1;" x="0" y="0"/></g><g class="g-gtitle"><text class="gtitle" x="350" y="0" text-anchor="middle" dy="0.7em" style="font-family: 'Open Sans', verdana, arial, sans-serif; font-size: 34px; fill: rgb(42, 63, 95); opacity: 1; font-weight: normal; white-space: pre;">Solvent Accessible Surface</text></g><g class="g-xtitle"><text class="xtitle" x="303" y="487.5" text-anchor="middle" style="font-family: Arial; font-size: 40px; fill: rgb(0, 0, 0); opacity: 1; font-weight: normal; white-space: pre;">Time (ns)</text></g><g class="g-ytitle" transform="translate(29.6875,0)"><text class="ytitle" transform="rotate(-90,12.125,254)" x="12.125" y="254" text-anchor="middle" style="font-family: Arial; font-size: 40px; fill: rgb(0, 0, 0); opacity: 1; font-weight: normal; white-space: pre;">SASA Area (nm​<tspan style="font-size:70%" dy="-0.6em">2</tspan><tspan dy="0.42em">​</tspan>)</text></g></g></svg>